<svg xmlns="http://www.w3.org/2000/svg" xmlns:xlink="http://www.w3.org/1999/xlink" width="500" zoomAndPan="magnify" viewBox="0 0 375 374.999991" height="500" preserveAspectRatio="xMidYMid meet" version="1.0"><defs><clipPath id="1d4f29211e"><path d="M 179 31 L 367 31 L 367 193 L 179 193 Z M 179 31 " clip-rule="nonzero"/></clipPath><clipPath id="78318a281f"><path d="M 174.890625 45.328125 L 190.433594 26.789062 L 371.554688 178.628906 L 356.011719 197.171875 Z M 174.890625 45.328125 " clip-rule="nonzero"/></clipPath><clipPath id="e6db45f6a9"><path d="M 182.664062 36.058594 C 186.953125 30.9375 194.582031 30.265625 199.703125 34.558594 L 362.230469 170.816406 C 367.351562 175.109375 368.023438 182.738281 363.730469 187.855469 C 359.4375 192.976562 351.808594 193.648438 346.6875 189.355469 L 184.160156 53.097656 C 179.042969 48.804688 178.371094 41.175781 182.664062 36.058594 Z M 182.664062 36.058594 " clip-rule="nonzero"/></clipPath><clipPath id="5133ec513f"><path d="M 0 0 L 188 0 L 188 162 L 0 162 Z M 0 0 " clip-rule="nonzero"/></clipPath><clipPath id="38c03f3230"><path d="M -4.109375 14.328125 L 11.433594 -4.210938 L 192.554688 147.628906 L 177.011719 166.171875 Z M -4.109375 14.328125 " clip-rule="nonzero"/></clipPath><clipPath id="079d1d469e"><path d="M 3.664062 5.058594 C 7.953125 -0.0625 15.582031 -0.734375 20.703125 3.558594 L 183.230469 139.816406 C 188.351562 144.109375 189.023438 151.738281 184.730469 156.855469 C 180.4375 161.976562 172.808594 162.648438 167.6875 158.355469 L 5.160156 22.097656 C 0.0429688 17.804688 -0.628906 10.175781 3.664062 5.058594 Z M 3.664062 5.058594 " clip-rule="nonzero"/></clipPath><clipPath id="65d880d6b6"><rect x="0" width="188" y="0" height="162"/></clipPath><clipPath id="a44976dfdd"><path d="M 8 31 L 202 31 L 202 193 L 8 193 Z M 8 31 " clip-rule="nonzero"/></clipPath><clipPath id="5a8fc9a285"><path d="M 18.90625 197.125 L 3.496094 177.988281 L 191.34375 26.738281 L 206.753906 45.875 Z M 18.90625 197.125 " clip-rule="nonzero"/></clipPath><clipPath id="6345afe24f"><path d="M 11.199219 187.558594 C 9.15625 185.019531 8.207031 181.773438 8.554688 178.535156 C 8.90625 175.296875 10.527344 172.328125 13.066406 170.285156 L 181.714844 34.492188 C 184.253906 32.449219 187.496094 31.496094 190.738281 31.84375 C 193.976562 32.195312 196.945312 33.816406 198.988281 36.355469 C 201.03125 38.890625 201.980469 42.136719 201.632812 45.375 C 201.28125 48.617188 199.660156 51.582031 197.121094 53.625 L 28.472656 189.421875 C 25.933594 191.464844 22.691406 192.414062 19.449219 192.066406 C 16.210938 191.714844 13.246094 190.09375 11.199219 187.558594 Z M 11.199219 187.558594 " clip-rule="nonzero"/></clipPath><clipPath id="15749947ec"><path d="M 0.160156 0.441406 L 194 0.441406 L 194 161.480469 L 0.160156 161.480469 Z M 0.160156 0.441406 " clip-rule="nonzero"/></clipPath><clipPath id="7e331fb908"><path d="M 10.90625 166.125 L -4.503906 146.988281 L 183.34375 -4.261719 L 198.753906 14.875 Z M 10.90625 166.125 " clip-rule="nonzero"/></clipPath><clipPath id="63a613b30b"><path d="M 3.199219 156.558594 C 1.15625 154.019531 0.207031 150.773438 0.554688 147.535156 C 0.90625 144.296875 2.527344 141.328125 5.066406 139.285156 L 173.714844 3.492188 C 176.253906 1.449219 179.496094 0.496094 182.738281 0.84375 C 185.976562 1.195312 188.945312 2.816406 190.988281 5.355469 C 193.03125 7.890625 193.980469 11.136719 193.632812 14.375 C 193.28125 17.617188 191.660156 20.582031 189.121094 22.625 L 20.472656 158.421875 C 17.933594 160.464844 14.691406 161.414062 11.449219 161.066406 C 8.210938 160.714844 5.246094 159.09375 3.199219 156.558594 Z M 3.199219 156.558594 " clip-rule="nonzero"/></clipPath><clipPath id="8bd2180c07"><rect x="0" width="194" y="0" height="162"/></clipPath><clipPath id="b3528577cb"><path d="M 32.191406 151.378906 L 57.269531 151.378906 L 57.269531 348.199219 L 32.191406 348.199219 Z M 32.191406 151.378906 " clip-rule="nonzero"/></clipPath><clipPath id="fc0da81037"><path d="M 44.730469 348.199219 C 41.402344 348.199219 38.214844 346.878906 35.863281 344.527344 C 33.511719 342.175781 32.191406 338.984375 32.191406 335.660156 L 32.191406 164.007812 C 32.191406 160.683594 33.511719 157.492188 35.863281 155.140625 C 38.214844 152.789062 41.402344 151.46875 44.730469 151.46875 C 48.054688 151.46875 51.246094 152.789062 53.597656 155.140625 C 55.949219 157.492188 57.269531 160.683594 57.269531 164.007812 L 57.269531 335.660156 C 57.269531 338.984375 55.949219 342.175781 53.597656 344.527344 C 51.246094 346.878906 48.054688 348.199219 44.730469 348.199219 Z M 44.730469 348.199219 " clip-rule="nonzero"/></clipPath><clipPath id="85f91a960d"><path d="M 0.191406 0.441406 L 25.269531 0.441406 L 25.269531 197.199219 L 0.191406 197.199219 Z M 0.191406 0.441406 " clip-rule="nonzero"/></clipPath><clipPath id="4f91e8c016"><path d="M 12.730469 197.199219 C 9.402344 197.199219 6.214844 195.878906 3.863281 193.527344 C 1.511719 191.175781 0.191406 187.984375 0.191406 184.660156 L 0.191406 13.007812 C 0.191406 9.683594 1.511719 6.492188 3.863281 4.140625 C 6.214844 1.789062 9.402344 0.46875 12.730469 0.46875 C 16.054688 0.46875 19.246094 1.789062 21.597656 4.140625 C 23.949219 6.492188 25.269531 9.683594 25.269531 13.007812 L 25.269531 184.660156 C 25.269531 187.984375 23.949219 191.175781 21.597656 193.527344 C 19.246094 195.878906 16.054688 197.199219 12.730469 197.199219 Z M 12.730469 197.199219 " clip-rule="nonzero"/></clipPath><clipPath id="ea647d3c39"><rect x="0" width="26" y="0" height="198"/></clipPath><clipPath id="c44bdc9647"><path d="M 318.394531 148.082031 L 343.058594 148.082031 L 343.058594 348.199219 L 318.394531 348.199219 Z M 318.394531 148.082031 " clip-rule="nonzero"/></clipPath><clipPath id="8b761b6304"><path d="M 330.726562 348.199219 C 323.914062 348.199219 318.394531 342.675781 318.394531 335.867188 L 318.394531 160.480469 C 318.394531 153.667969 323.914062 148.148438 330.726562 148.148438 C 337.539062 148.148438 343.058594 153.667969 343.058594 160.480469 L 343.058594 335.867188 C 343.058594 342.675781 337.539062 348.199219 330.726562 348.199219 Z M 330.726562 348.199219 " clip-rule="nonzero"/></clipPath><clipPath id="f9b8be9be4"><path d="M 0.394531 0.0820312 L 25.058594 0.0820312 L 25.058594 200.199219 L 0.394531 200.199219 Z M 0.394531 0.0820312 " clip-rule="nonzero"/></clipPath><clipPath id="0c7aa8e152"><path d="M 12.726562 200.199219 C 5.914062 200.199219 0.394531 194.675781 0.394531 187.867188 L 0.394531 12.480469 C 0.394531 5.667969 5.914062 0.148438 12.726562 0.148438 C 19.539062 0.148438 25.058594 5.667969 25.058594 12.480469 L 25.058594 187.867188 C 25.058594 194.675781 19.539062 200.199219 12.726562 200.199219 Z M 12.726562 200.199219 " clip-rule="nonzero"/></clipPath><clipPath id="35ea1160a9"><rect x="0" width="26" y="0" height="201"/></clipPath><clipPath id="1d9aa57559"><path d="M 32.1875 323.539062 L 343.105469 323.539062 L 343.105469 348.203125 L 32.1875 348.203125 Z M 32.1875 323.539062 " clip-rule="nonzero"/></clipPath><clipPath id="8da64f0df7"><path d="M 32.1875 335.871094 C 32.1875 329.058594 37.710938 323.539062 44.519531 323.539062 L 330.730469 323.539062 C 337.542969 323.539062 343.0625 329.058594 343.0625 335.871094 C 343.0625 342.683594 337.542969 348.203125 330.730469 348.203125 L 44.519531 348.203125 C 37.710938 348.203125 32.1875 342.683594 32.1875 335.871094 Z M 32.1875 335.871094 " clip-rule="nonzero"/></clipPath><clipPath id="43d918cf56"><path d="M 0.1875 0.539062 L 311.105469 0.539062 L 311.105469 25.203125 L 0.1875 25.203125 Z M 0.1875 0.539062 " clip-rule="nonzero"/></clipPath><clipPath id="ec4700d28b"><path d="M 0.1875 12.871094 C 0.1875 6.058594 5.710938 0.539062 12.519531 0.539062 L 298.730469 0.539062 C 305.542969 0.539062 311.0625 6.058594 311.0625 12.871094 C 311.0625 19.683594 305.542969 25.203125 298.730469 25.203125 L 12.519531 25.203125 C 5.710938 25.203125 0.1875 19.683594 0.1875 12.871094 Z M 0.1875 12.871094 " clip-rule="nonzero"/></clipPath><clipPath id="6a31e6497e"><rect x="0" width="312" y="0" height="26"/></clipPath><clipPath id="14db5cce27"><path d="M 124 2 L 353 2 L 353 305 L 124 305 Z M 124 2 " clip-rule="nonzero"/></clipPath><clipPath id="2c5f126832"><path d="M 56.664062 164.175781 L 320.609375 -18.507812 L 443.539062 159.097656 L 179.59375 341.785156 Z M 56.664062 164.175781 " clip-rule="nonzero"/></clipPath><clipPath id="28e769f862"><path d="M 56.664062 164.175781 L 320.609375 -18.507812 L 443.539062 159.097656 L 179.59375 341.785156 Z M 56.664062 164.175781 " clip-rule="nonzero"/></clipPath></defs><g clip-path="url(#1d4f29211e)"><g clip-path="url(#78318a281f)"><g clip-path="url(#e6db45f6a9)"><g transform="matrix(1, 0, 0, 1, 179, 31)"><g clip-path="url(#65d880d6b6)"><g clip-path="url(#5133ec513f)"><g clip-path="url(#38c03f3230)"><g clip-path="url(#079d1d469e)"><path fill="#102042" d="M -4.109375 14.328125 L 11.433594 -4.210938 L 192.480469 147.570312 L 176.9375 166.109375 Z M -4.109375 14.328125 " fill-opacity="1" fill-rule="nonzero"/></g></g></g></g></g></g></g></g><g clip-path="url(#a44976dfdd)"><g clip-path="url(#5a8fc9a285)"><g clip-path="url(#6345afe24f)"><g transform="matrix(1, 0, 0, 1, 8, 31)"><g clip-path="url(#8bd2180c07)"><g clip-path="url(#15749947ec)"><g clip-path="url(#7e331fb908)"><g clip-path="url(#63a613b30b)"><path fill="#102042" d="M 10.90625 166.125 L -4.503906 146.988281 L 183.269531 -4.203125 L 198.675781 14.933594 Z M 10.90625 166.125 " fill-opacity="1" fill-rule="nonzero"/></g></g></g></g></g></g></g></g><g clip-path="url(#b3528577cb)"><g clip-path="url(#fc0da81037)"><g transform="matrix(1, 0, 0, 1, 32, 151)"><g clip-path="url(#ea647d3c39)"><g clip-path="url(#85f91a960d)"><g clip-path="url(#4f91e8c016)"><path fill="#102042" d="M 25.269531 197.199219 L 0.191406 197.199219 L 0.191406 0.476562 L 25.269531 0.476562 Z M 25.269531 197.199219 " fill-opacity="1" fill-rule="nonzero"/></g></g></g></g></g></g><g clip-path="url(#c44bdc9647)"><g clip-path="url(#8b761b6304)"><g transform="matrix(1, 0, 0, 1, 318, 148)"><g clip-path="url(#35ea1160a9)"><g clip-path="url(#f9b8be9be4)"><g clip-path="url(#0c7aa8e152)"><path fill="#102042" d="M 25.058594 200.199219 L 0.394531 200.199219 L 0.394531 0.179688 L 25.058594 0.179688 Z M 25.058594 200.199219 " fill-opacity="1" fill-rule="nonzero"/></g></g></g></g></g></g><g clip-path="url(#1d9aa57559)"><g clip-path="url(#8da64f0df7)"><g transform="matrix(1, 0, 0, 1, 32, 323)"><g clip-path="url(#6a31e6497e)"><g clip-path="url(#43d918cf56)"><g clip-path="url(#ec4700d28b)"><path fill="#102042" d="M 0.1875 25.203125 L 0.1875 0.539062 L 311.105469 0.539062 L 311.105469 25.203125 Z M 0.1875 25.203125 " fill-opacity="1" fill-rule="nonzero"/></g></g></g></g></g></g><g clip-path="url(#14db5cce27)"><g clip-path="url(#2c5f126832)"><g clip-path="url(#28e769f862)"><path fill="#102042" d="M 313.367188 3.363281 C 300.527344 1.042969 287.933594 4.128906 277.992188 11.011719 C 268.03125 17.90625 260.71875 28.59375 258.371094 41.429688 C 254.789062 61.039062 263.878906 80.023438 279.816406 89.992188 L 254.230469 230.265625 C 251.957031 242.816406 244.902344 253.738281 234.402344 261.003906 C 223.914062 268.261719 211.222656 271.007812 198.644531 268.734375 C 186.085938 266.449219 175.183594 259.421875 167.925781 248.9375 C 160.65625 238.4375 157.910156 225.742188 160.195312 213.183594 L 172.339844 215.390625 L 138.539062 137.175781 L 125.832031 206.957031 C 117.617188 251.894531 147.425781 294.96875 192.378906 303.105469 C 214.859375 307.195312 236.882812 301.765625 254.28125 289.726562 C 271.710938 277.660156 284.53125 258.972656 288.621094 236.496094 L 314.195312 96.234375 C 320.550781 94.945312 326.53125 92.382812 331.792969 88.742188 C 341.75 81.851562 349.0625 71.164062 351.410156 58.328125 C 356.082031 32.65625 339.039062 8.035156 313.367188 3.363281 Z M 328.160156 54.085938 C 327.027344 60.3125 323.53125 65.707031 318.335938 69.304688 C 315.644531 71.167969 312.679688 72.4375 309.523438 73.066406 L 300.292969 74.929688 L 292.332031 69.9375 C 288.359375 67.472656 285.25 63.90625 283.320312 59.59375 C 281.328125 55.230469 280.753906 50.433594 281.617188 45.699219 C 282.75 39.46875 286.234375 34.0625 291.445312 30.453125 C 296.644531 26.855469 302.933594 25.5 309.160156 26.632812 C 315.351562 27.746094 320.761719 31.230469 324.347656 36.414062 C 327.933594 41.59375 329.289062 47.882812 328.160156 54.085938 Z M 328.160156 54.085938 " fill-opacity="1" fill-rule="nonzero"/></g></g></g></svg>