<svg xmlns="http://www.w3.org/2000/svg" xmlns:xlink="http://www.w3.org/1999/xlink" width="500" zoomAndPan="magnify" viewBox="0 0 375 374.999991" height="500" preserveAspectRatio="xMidYMid meet" version="1.0"><defs><clipPath id="36dbf8d1d7"><path d="M 155 22 L 339 22 L 339 265 L 155 265 Z M 155 22 " clip-rule="nonzero"/></clipPath><clipPath id="736273a98c"><path d="M 101.507812 152.175781 L 313.035156 5.769531 L 411.207031 147.609375 L 199.679688 294.015625 Z M 101.507812 152.175781 " clip-rule="nonzero"/></clipPath><clipPath id="e012b12012"><path d="M 101.507812 152.175781 L 313.035156 5.769531 L 411.207031 147.609375 L 199.679688 294.015625 Z M 101.507812 152.175781 " clip-rule="nonzero"/></clipPath><clipPath id="54fff7fe04"><path d="M 179 38 L 375 38 L 375 207 L 179 207 Z M 179 38 " clip-rule="nonzero"/></clipPath><clipPath id="27d0c3aea7"><path d="M 174.488281 53.105469 L 190.710938 33.75 L 379.785156 192.261719 L 363.558594 211.613281 Z M 174.488281 53.105469 " clip-rule="nonzero"/></clipPath><clipPath id="400b76ca13"><path d="M 182.597656 43.429688 C 187.078125 38.082031 195.042969 37.382812 200.386719 41.863281 L 370.054688 184.105469 C 375.398438 188.585938 376.097656 196.546875 371.617188 201.894531 C 367.136719 207.238281 359.171875 207.9375 353.828125 203.457031 L 184.164062 61.21875 C 178.820312 56.738281 178.117188 48.773438 182.597656 43.429688 Z M 182.597656 43.429688 " clip-rule="nonzero"/></clipPath><clipPath id="2addeddc8c"><path d="M 0 0 L 196 0 L 196 169 L 0 169 Z M 0 0 " clip-rule="nonzero"/></clipPath><clipPath id="5223282cd9"><path d="M -4.511719 15.105469 L 11.710938 -4.25 L 200.785156 154.261719 L 184.558594 173.613281 Z M -4.511719 15.105469 " clip-rule="nonzero"/></clipPath><clipPath id="e6d6e3c54d"><path d="M 3.597656 5.429688 C 8.078125 0.0820312 16.042969 -0.617188 21.386719 3.863281 L 191.054688 146.105469 C 196.398438 150.585938 197.097656 158.546875 192.617188 163.894531 C 188.136719 169.238281 180.171875 169.9375 174.828125 165.457031 L 5.164062 23.21875 C -0.179688 18.738281 -0.882812 10.773438 3.597656 5.429688 Z M 3.597656 5.429688 " clip-rule="nonzero"/></clipPath><clipPath id="b894db48b2"><rect x="0" width="196" y="0" height="169"/></clipPath><clipPath id="865d326eeb"><path d="M 0 38 L 203 38 L 203 207 L 0 207 Z M 0 38 " clip-rule="nonzero"/></clipPath><clipPath id="88382282a5"><path d="M 11.648438 211.5625 L -4.433594 191.585938 L 191.660156 33.695312 L 207.746094 53.671875 Z M 11.648438 211.5625 " clip-rule="nonzero"/></clipPath><clipPath id="19ce0db672"><path d="M 3.609375 201.574219 C 1.476562 198.925781 0.480469 195.539062 0.847656 192.15625 C 1.210938 188.777344 2.90625 185.679688 5.554688 183.542969 L 181.609375 41.789062 C 184.257812 39.65625 187.644531 38.660156 191.027344 39.027344 C 194.410156 39.390625 197.507812 41.085938 199.640625 43.734375 C 201.773438 46.382812 202.765625 49.769531 202.402344 53.152344 C 202.035156 56.53125 200.34375 59.632812 197.695312 61.765625 L 21.636719 203.519531 C 18.988281 205.652344 15.601562 206.648438 12.21875 206.28125 C 8.839844 205.917969 5.742188 204.222656 3.609375 201.574219 Z M 3.609375 201.574219 " clip-rule="nonzero"/></clipPath><clipPath id="5ddb3af2c5"><path d="M 0.480469 0.640625 L 202.800781 0.640625 L 202.800781 168.878906 L 0.480469 168.878906 Z M 0.480469 0.640625 " clip-rule="nonzero"/></clipPath><clipPath id="cb97c98075"><path d="M 11.648438 173.5625 L -4.433594 153.585938 L 191.660156 -4.304688 L 207.746094 15.671875 Z M 11.648438 173.5625 " clip-rule="nonzero"/></clipPath><clipPath id="21794cfe91"><path d="M 3.609375 163.574219 C 1.476562 160.925781 0.480469 157.539062 0.847656 154.15625 C 1.210938 150.777344 2.90625 147.679688 5.554688 145.542969 L 181.609375 3.789062 C 184.257812 1.65625 187.644531 0.660156 191.027344 1.027344 C 194.410156 1.390625 197.507812 3.085938 199.640625 5.734375 C 201.773438 8.382812 202.765625 11.769531 202.402344 15.152344 C 202.035156 18.53125 200.34375 21.632812 197.695312 23.765625 L 21.636719 165.519531 C 18.988281 167.652344 15.601562 168.648438 12.21875 168.28125 C 8.839844 167.917969 5.742188 166.222656 3.609375 163.574219 Z M 3.609375 163.574219 " clip-rule="nonzero"/></clipPath><clipPath id="8e27026a58"><rect x="0" width="203" y="0" height="169"/></clipPath><clipPath id="1e0b62aa57"><path d="M 25.515625 163.8125 L 51.699219 163.8125 L 51.699219 369.273438 L 25.515625 369.273438 Z M 25.515625 163.8125 " clip-rule="nonzero"/></clipPath><clipPath id="8adc73b1d4"><path d="M 38.609375 369.273438 C 35.136719 369.273438 31.804688 367.894531 29.351562 365.441406 C 26.898438 362.984375 25.515625 359.65625 25.515625 356.183594 L 25.515625 176.996094 C 25.515625 173.523438 26.898438 170.195312 29.351562 167.738281 C 31.804688 165.285156 35.136719 163.90625 38.609375 163.90625 C 42.078125 163.90625 45.410156 165.285156 47.863281 167.738281 C 50.320312 170.195312 51.699219 173.523438 51.699219 176.996094 L 51.699219 356.183594 C 51.699219 359.65625 50.320312 362.984375 47.863281 365.441406 C 45.410156 367.894531 42.078125 369.273438 38.609375 369.273438 Z M 38.609375 369.273438 " clip-rule="nonzero"/></clipPath><clipPath id="708c3f6689"><path d="M 0.515625 0.8125 L 26.699219 0.8125 L 26.699219 206.273438 L 0.515625 206.273438 Z M 0.515625 0.8125 " clip-rule="nonzero"/></clipPath><clipPath id="7426817ae6"><path d="M 13.609375 206.273438 C 10.136719 206.273438 6.804688 204.894531 4.351562 202.441406 C 1.898438 199.984375 0.515625 196.65625 0.515625 193.183594 L 0.515625 13.996094 C 0.515625 10.523438 1.898438 7.195312 4.351562 4.738281 C 6.804688 2.285156 10.136719 0.90625 13.609375 0.90625 C 17.078125 0.90625 20.410156 2.285156 22.863281 4.738281 C 25.320312 7.195312 26.699219 10.523438 26.699219 13.996094 L 26.699219 193.183594 C 26.699219 196.65625 25.320312 199.984375 22.863281 202.441406 C 20.410156 204.894531 17.078125 206.273438 13.609375 206.273438 Z M 13.609375 206.273438 " clip-rule="nonzero"/></clipPath><clipPath id="302c2d57e4"><rect x="0" width="27" y="0" height="207"/></clipPath><clipPath id="e38ad77cc6"><path d="M 324.296875 160.375 L 350.042969 160.375 L 350.042969 369.277344 L 324.296875 369.277344 Z M 324.296875 160.375 " clip-rule="nonzero"/></clipPath><clipPath id="5eaa6d80b9"><path d="M 337.167969 369.277344 C 330.058594 369.277344 324.296875 363.515625 324.296875 356.40625 L 324.296875 173.320312 C 324.296875 166.207031 330.058594 160.445312 337.167969 160.445312 C 344.28125 160.445312 350.042969 166.207031 350.042969 173.320312 L 350.042969 356.40625 C 350.042969 363.515625 344.28125 369.277344 337.167969 369.277344 Z M 337.167969 369.277344 " clip-rule="nonzero"/></clipPath><clipPath id="7e10df195a"><path d="M 0.296875 0.375 L 26.042969 0.375 L 26.042969 209.277344 L 0.296875 209.277344 Z M 0.296875 0.375 " clip-rule="nonzero"/></clipPath><clipPath id="1b90c7c1ed"><path d="M 13.167969 209.277344 C 6.058594 209.277344 0.296875 203.515625 0.296875 196.40625 L 0.296875 13.320312 C 0.296875 6.207031 6.058594 0.445312 13.167969 0.445312 C 20.28125 0.445312 26.042969 6.207031 26.042969 13.320312 L 26.042969 196.40625 C 26.042969 203.515625 20.28125 209.277344 13.167969 209.277344 Z M 13.167969 209.277344 " clip-rule="nonzero"/></clipPath><clipPath id="d18a86f1b7"><rect x="0" width="27" y="0" height="210"/></clipPath><clipPath id="65d8087f95"><path d="M 25.523438 343.53125 L 350.09375 343.53125 L 350.09375 369.277344 L 25.523438 369.277344 Z M 25.523438 343.53125 " clip-rule="nonzero"/></clipPath><clipPath id="bbf09240bd"><path d="M 25.523438 356.402344 C 25.523438 349.292969 31.289062 343.53125 38.398438 343.53125 L 337.175781 343.53125 C 344.285156 343.53125 350.050781 349.292969 350.050781 356.402344 C 350.050781 363.515625 344.285156 369.277344 337.175781 369.277344 L 38.398438 369.277344 C 31.289062 369.277344 25.523438 363.515625 25.523438 356.402344 Z M 25.523438 356.402344 " clip-rule="nonzero"/></clipPath><clipPath id="aeec2331c0"><path d="M 0.523438 0.53125 L 325.09375 0.53125 L 325.09375 26.277344 L 0.523438 26.277344 Z M 0.523438 0.53125 " clip-rule="nonzero"/></clipPath><clipPath id="023945943e"><path d="M 0.523438 13.402344 C 0.523438 6.292969 6.289062 0.53125 13.398438 0.53125 L 312.175781 0.53125 C 319.285156 0.53125 325.050781 6.292969 325.050781 13.402344 C 325.050781 20.515625 319.285156 26.277344 312.175781 26.277344 L 13.398438 26.277344 C 6.289062 26.277344 0.523438 20.515625 0.523438 13.402344 Z M 0.523438 13.402344 " clip-rule="nonzero"/></clipPath><clipPath id="0834a8172a"><rect x="0" width="326" y="0" height="27"/></clipPath></defs><g clip-path="url(#36dbf8d1d7)"><g clip-path="url(#736273a98c)"><g clip-path="url(#e012b12012)"><path fill="#ff662e" d="M 307.128906 23.367188 C 296.84375 21.503906 286.757812 23.980469 278.789062 29.492188 C 270.8125 35.015625 264.957031 43.574219 263.074219 53.855469 C 260.203125 69.566406 267.488281 84.773438 280.25 92.757812 L 259.757812 205.113281 C 257.9375 215.167969 252.285156 223.917969 243.875 229.738281 C 235.476562 235.550781 225.308594 237.75 215.234375 235.929688 C 205.171875 234.101562 196.441406 228.46875 190.628906 220.070312 C 184.804688 211.660156 182.605469 201.492188 184.4375 191.433594 L 194.164062 193.203125 L 167.089844 130.550781 L 156.910156 186.445312 C 150.328125 222.441406 174.207031 256.941406 210.214844 263.460938 C 228.222656 266.738281 245.863281 262.390625 259.796875 252.742188 C 273.757812 243.082031 284.03125 228.113281 287.304688 210.105469 L 307.789062 97.753906 C 312.882812 96.722656 317.671875 94.671875 321.886719 91.753906 C 329.863281 86.234375 335.71875 77.671875 337.601562 67.394531 C 341.34375 46.828125 327.691406 27.105469 307.128906 23.367188 Z M 318.976562 63.992188 C 318.070312 68.980469 315.269531 73.300781 311.105469 76.183594 C 308.953125 77.675781 306.578125 78.695312 304.050781 79.199219 L 296.652344 80.691406 L 290.277344 76.691406 C 287.097656 74.71875 284.605469 71.859375 283.058594 68.40625 C 281.464844 64.910156 281.003906 61.070312 281.695312 57.273438 C 282.601562 52.285156 285.394531 47.953125 289.570312 45.0625 C 293.730469 42.183594 298.769531 41.097656 303.757812 42.003906 C 308.71875 42.894531 313.050781 45.6875 315.921875 49.835938 C 318.792969 53.988281 319.882812 59.027344 318.976562 63.992188 Z M 318.976562 63.992188 " fill-opacity="1" fill-rule="nonzero"/></g></g></g><g clip-path="url(#54fff7fe04)"><g clip-path="url(#27d0c3aea7)"><g clip-path="url(#400b76ca13)"><g transform="matrix(1, 0, 0, 1, 179, 38)"><g clip-path="url(#b894db48b2)"><g clip-path="url(#2addeddc8c)"><g clip-path="url(#5223282cd9)"><g clip-path="url(#e6d6e3c54d)"><path fill="#2b303b" d="M -4.511719 15.105469 L 11.710938 -4.25 L 200.710938 154.199219 L 184.484375 173.550781 Z M -4.511719 15.105469 " fill-opacity="1" fill-rule="nonzero"/></g></g></g></g></g></g></g></g><g clip-path="url(#865d326eeb)"><g clip-path="url(#88382282a5)"><g clip-path="url(#19ce0db672)"><g transform="matrix(1, 0, 0, 1, 0.000000000000000056, 38)"><g clip-path="url(#8e27026a58)"><g clip-path="url(#5ddb3af2c5)"><g clip-path="url(#cb97c98075)"><g clip-path="url(#21794cfe91)"><path fill="#2b303b" d="M 11.648438 173.5625 L -4.433594 153.585938 L 191.582031 -4.242188 L 207.667969 15.734375 Z M 11.648438 173.5625 " fill-opacity="1" fill-rule="nonzero"/></g></g></g></g></g></g></g></g><g clip-path="url(#1e0b62aa57)"><g clip-path="url(#8adc73b1d4)"><g transform="matrix(1, 0, 0, 1, 25, 163)"><g clip-path="url(#302c2d57e4)"><g clip-path="url(#708c3f6689)"><g clip-path="url(#7426817ae6)"><path fill="#2b303b" d="M 26.699219 206.273438 L 0.515625 206.273438 L 0.515625 0.914062 L 26.699219 0.914062 Z M 26.699219 206.273438 " fill-opacity="1" fill-rule="nonzero"/></g></g></g></g></g></g><g clip-path="url(#e38ad77cc6)"><g clip-path="url(#5eaa6d80b9)"><g transform="matrix(1, 0, 0, 1, 324, 160)"><g clip-path="url(#d18a86f1b7)"><g clip-path="url(#7e10df195a)"><g clip-path="url(#1b90c7c1ed)"><path fill="#2b303b" d="M 26.042969 209.277344 L 0.296875 209.277344 L 0.296875 0.476562 L 26.042969 0.476562 Z M 26.042969 209.277344 " fill-opacity="1" fill-rule="nonzero"/></g></g></g></g></g></g><g clip-path="url(#65d8087f95)"><g clip-path="url(#bbf09240bd)"><g transform="matrix(1, 0, 0, 1, 25, 343)"><g clip-path="url(#0834a8172a)"><g clip-path="url(#aeec2331c0)"><g clip-path="url(#023945943e)"><path fill="#2b303b" d="M 0.523438 26.277344 L 0.523438 0.53125 L 325.09375 0.53125 L 325.09375 26.277344 Z M 0.523438 26.277344 " fill-opacity="1" fill-rule="nonzero"/></g></g></g></g></g></g></svg>