<svg xmlns="http://www.w3.org/2000/svg" xmlns:xlink="http://www.w3.org/1999/xlink" width="538" zoomAndPan="magnify" viewBox="0 0 403.5 369.749989" height="493" preserveAspectRatio="xMidYMid meet" version="1.0"><defs><clipPath id="fea02a6ad4"><path d="M 174 25 L 384 25 L 384 208 L 174 208 Z M 174 25 " clip-rule="nonzero"/></clipPath><clipPath id="d2be2fb7d6"><path d="M 165.214844 52.351562 L 195.679688 16.011719 L 392.714844 181.195312 L 362.25 217.535156 Z M 165.214844 52.351562 " clip-rule="nonzero"/></clipPath><clipPath id="9b9eb32528"><path d="M 180.449219 34.179688 C 188.859375 24.144531 203.816406 22.832031 213.851562 31.242188 L 374.523438 165.945312 C 384.558594 174.359375 385.875 189.3125 377.460938 199.347656 C 369.050781 209.382812 354.09375 210.699219 344.058594 202.285156 L 183.386719 67.582031 C 173.351562 59.171875 172.035156 44.214844 180.449219 34.179688 Z M 180.449219 34.179688 " clip-rule="nonzero"/></clipPath><clipPath id="a94ec47fc6"><path d="M 0 0 L 210 0 L 210 183 L 0 183 Z M 0 0 " clip-rule="nonzero"/></clipPath><clipPath id="ba93bf94f0"><path d="M -8.785156 27.351562 L 21.679688 -8.988281 L 218.714844 156.195312 L 188.25 192.535156 Z M -8.785156 27.351562 " clip-rule="nonzero"/></clipPath><clipPath id="b9a7698b3b"><path d="M 6.449219 9.179688 C 14.859375 -0.855469 29.816406 -2.167969 39.851562 6.242188 L 200.523438 140.945312 C 210.558594 149.359375 211.875 164.3125 203.460938 174.347656 C 195.050781 184.382812 180.09375 185.699219 170.058594 177.285156 L 9.386719 42.582031 C -0.648438 34.171875 -1.964844 19.214844 6.449219 9.179688 Z M 6.449219 9.179688 " clip-rule="nonzero"/></clipPath><clipPath id="714e6eca1e"><rect x="0" width="210" y="0" height="183"/></clipPath><clipPath id="7512edd38c"><path d="M 9 25 L 221 25 L 221 205 L 9 205 Z M 9 25 " clip-rule="nonzero"/></clipPath><clipPath id="2e3a949641"><path d="M 29.734375 214.175781 L -0.0078125 177.238281 L 200.257812 15.988281 L 230 52.925781 Z M 29.734375 214.175781 " clip-rule="nonzero"/></clipPath><clipPath id="4c615f6967"><path d="M 14.863281 195.707031 C 6.652344 185.507812 8.261719 170.582031 18.460938 162.367188 L 181.773438 30.875 C 191.972656 22.660156 206.898438 24.273438 215.109375 34.472656 C 223.324219 44.671875 221.710938 59.597656 211.511719 67.8125 L 48.203125 199.304688 C 38.003906 207.519531 23.078125 205.90625 14.863281 195.707031 Z M 14.863281 195.707031 " clip-rule="nonzero"/></clipPath><clipPath id="51f2ffa3f3"><path d="M 0 0 L 212 0 L 212 180 L 0 180 Z M 0 0 " clip-rule="nonzero"/></clipPath><clipPath id="002a4e44be"><path d="M 20.734375 189.175781 L -9.007812 152.238281 L 191.257812 -9.011719 L 221 27.925781 Z M 20.734375 189.175781 " clip-rule="nonzero"/></clipPath><clipPath id="59d733e8eb"><path d="M 5.863281 170.707031 C -2.347656 160.507812 -0.738281 145.582031 9.460938 137.367188 L 172.773438 5.875 C 182.972656 -2.339844 197.898438 -0.726562 206.109375 9.472656 C 214.324219 19.671875 212.710938 34.597656 202.511719 42.8125 L 39.203125 174.304688 C 29.003906 182.519531 14.078125 180.90625 5.863281 170.707031 Z M 5.863281 170.707031 " clip-rule="nonzero"/></clipPath><clipPath id="ad548f7be2"><rect x="0" width="212" y="0" height="180"/></clipPath><clipPath id="b680219665"><path d="M 40.496094 140.371094 L 87.917969 140.371094 L 87.917969 367.664062 L 40.496094 367.664062 Z M 40.496094 140.371094 " clip-rule="nonzero"/></clipPath><clipPath id="49dbd1c22b"><path d="M 64.207031 367.664062 C 51.109375 367.664062 40.496094 357.046875 40.496094 343.953125 L 40.496094 164.226562 C 40.496094 151.132812 51.109375 140.515625 64.207031 140.515625 C 77.300781 140.515625 87.917969 151.132812 87.917969 164.226562 L 87.917969 343.953125 C 87.917969 357.046875 77.300781 367.664062 64.207031 367.664062 Z M 64.207031 367.664062 " clip-rule="nonzero"/></clipPath><clipPath id="9fa4c2d439"><path d="M 0.496094 0.371094 L 47.917969 0.371094 L 47.917969 227.664062 L 0.496094 227.664062 Z M 0.496094 0.371094 " clip-rule="nonzero"/></clipPath><clipPath id="f6d4a088bc"><path d="M 24.207031 227.664062 C 11.109375 227.664062 0.496094 217.046875 0.496094 203.953125 L 0.496094 24.226562 C 0.496094 11.132812 11.109375 0.515625 24.207031 0.515625 C 37.300781 0.515625 47.917969 11.132812 47.917969 24.226562 L 47.917969 203.953125 C 47.917969 217.046875 37.300781 227.664062 24.207031 227.664062 Z M 24.207031 227.664062 " clip-rule="nonzero"/></clipPath><clipPath id="442aa3cd28"><rect x="0" width="48" y="0" height="228"/></clipPath><clipPath id="61722463c2"><path d="M 299.679688 140.371094 L 347.101562 140.371094 L 347.101562 367.664062 L 299.679688 367.664062 Z M 299.679688 140.371094 " clip-rule="nonzero"/></clipPath><clipPath id="b85abf402c"><path d="M 323.390625 367.664062 C 310.292969 367.664062 299.679688 357.046875 299.679688 343.953125 L 299.679688 164.226562 C 299.679688 151.132812 310.292969 140.515625 323.390625 140.515625 C 336.484375 140.515625 347.101562 151.132812 347.101562 164.226562 L 347.101562 343.953125 C 347.101562 357.046875 336.484375 367.664062 323.390625 367.664062 Z M 323.390625 367.664062 " clip-rule="nonzero"/></clipPath><clipPath id="a49e44360d"><path d="M 0.679688 0.371094 L 48.101562 0.371094 L 48.101562 227.664062 L 0.679688 227.664062 Z M 0.679688 0.371094 " clip-rule="nonzero"/></clipPath><clipPath id="fe8a125ed2"><path d="M 24.390625 227.664062 C 11.292969 227.664062 0.679688 217.046875 0.679688 203.953125 L 0.679688 24.226562 C 0.679688 11.132812 11.292969 0.515625 24.390625 0.515625 C 37.484375 0.515625 48.101562 11.132812 48.101562 24.226562 L 48.101562 203.953125 C 48.101562 217.046875 37.484375 227.664062 24.390625 227.664062 Z M 24.390625 227.664062 " clip-rule="nonzero"/></clipPath><clipPath id="e482a755e1"><rect x="0" width="49" y="0" height="228"/></clipPath><clipPath id="06656d0467"><path d="M 44.277344 320.234375 L 347.148438 320.234375 L 347.148438 367.65625 L 44.277344 367.65625 Z M 44.277344 320.234375 " clip-rule="nonzero"/></clipPath><clipPath id="0d3674df6e"><path d="M 44.277344 343.945312 C 44.277344 330.851562 54.894531 320.234375 67.988281 320.234375 L 323.402344 320.234375 C 336.496094 320.234375 347.113281 330.851562 347.113281 343.945312 C 347.113281 357.042969 336.496094 367.65625 323.402344 367.65625 L 67.988281 367.65625 C 54.894531 367.65625 44.277344 357.042969 44.277344 343.945312 Z M 44.277344 343.945312 " clip-rule="nonzero"/></clipPath><clipPath id="4d4921ba1f"><path d="M 0.277344 0.234375 L 303.148438 0.234375 L 303.148438 47.65625 L 0.277344 47.65625 Z M 0.277344 0.234375 " clip-rule="nonzero"/></clipPath><clipPath id="ea5b020df9"><path d="M 0.277344 23.945312 C 0.277344 10.851562 10.894531 0.234375 23.988281 0.234375 L 279.402344 0.234375 C 292.496094 0.234375 303.113281 10.851562 303.113281 23.945312 C 303.113281 37.042969 292.496094 47.65625 279.402344 47.65625 L 23.988281 47.65625 C 10.894531 47.65625 0.277344 37.042969 0.277344 23.945312 Z M 0.277344 23.945312 " clip-rule="nonzero"/></clipPath><clipPath id="dc4f546721"><rect x="0" width="304" y="0" height="48"/></clipPath><clipPath id="fed403f571"><path d="M 164 14 L 335 14 L 335 240 L 164 240 Z M 164 14 " clip-rule="nonzero"/></clipPath><clipPath id="8ca49c7b9a"><path d="M 114.40625 135.320312 L 311.027344 -0.765625 L 402.515625 131.421875 L 205.898438 267.503906 Z M 114.40625 135.320312 " clip-rule="nonzero"/></clipPath><clipPath id="832bf95fbf"><path d="M 114.40625 135.320312 L 311.027344 -0.765625 L 402.515625 131.421875 L 205.898438 267.503906 Z M 114.40625 135.320312 " clip-rule="nonzero"/></clipPath><clipPath id="7a8f060a55"><rect x="0" width="401" y="0" height="368"/></clipPath></defs><g transform="matrix(1, 0, 0, 1, 0, 1)"><g clip-path="url(#7a8f060a55)"><g clip-path="url(#fea02a6ad4)"><g clip-path="url(#d2be2fb7d6)"><g clip-path="url(#9b9eb32528)"><g transform="matrix(1, 0, 0, 1, 174, 25)"><g clip-path="url(#714e6eca1e)"><g clip-path="url(#a94ec47fc6)"><g clip-path="url(#ba93bf94f0)"><g clip-path="url(#b9a7698b3b)"><path fill="#155dfc" d="M -8.785156 27.351562 L 21.679688 -8.988281 L 218.714844 156.195312 L 188.25 192.535156 Z M -8.785156 27.351562 " fill-opacity="1" fill-rule="nonzero"/></g></g></g></g></g></g></g></g><g clip-path="url(#7512edd38c)"><g clip-path="url(#2e3a949641)"><g clip-path="url(#4c615f6967)"><g transform="matrix(1, 0, 0, 1, 9, 25)"><g clip-path="url(#ad548f7be2)"><g clip-path="url(#51f2ffa3f3)"><g clip-path="url(#002a4e44be)"><g clip-path="url(#59d733e8eb)"><path fill="#155dfc" d="M 20.734375 189.175781 L -9.007812 152.238281 L 191.257812 -9.011719 L 221 27.925781 Z M 20.734375 189.175781 " fill-opacity="1" fill-rule="nonzero"/></g></g></g></g></g></g></g></g><g clip-path="url(#b680219665)"><g clip-path="url(#49dbd1c22b)"><g transform="matrix(1, 0, 0, 1, 40, 140)"><g clip-path="url(#442aa3cd28)"><g clip-path="url(#9fa4c2d439)"><g clip-path="url(#f6d4a088bc)"><path fill="#155dfc" d="M 47.917969 227.664062 L 0.496094 227.664062 L 0.496094 0.554688 L 47.917969 0.554688 Z M 47.917969 227.664062 " fill-opacity="1" fill-rule="nonzero"/></g></g></g></g></g></g><g clip-path="url(#61722463c2)"><g clip-path="url(#b85abf402c)"><g transform="matrix(1, 0, 0, 1, 299, 140)"><g clip-path="url(#e482a755e1)"><g clip-path="url(#a49e44360d)"><g clip-path="url(#fe8a125ed2)"><path fill="#155dfc" d="M 48.101562 227.664062 L 0.679688 227.664062 L 0.679688 0.554688 L 48.101562 0.554688 Z M 48.101562 227.664062 " fill-opacity="1" fill-rule="nonzero"/></g></g></g></g></g></g><g clip-path="url(#06656d0467)"><g clip-path="url(#0d3674df6e)"><g transform="matrix(1, 0, 0, 1, 44, 320)"><g clip-path="url(#dc4f546721)"><g clip-path="url(#4d4921ba1f)"><g clip-path="url(#ea5b020df9)"><path fill="#155dfc" d="M 0.277344 47.65625 L 0.277344 0.234375 L 303.148438 0.234375 L 303.148438 47.65625 Z M 0.277344 47.65625 " fill-opacity="1" fill-rule="nonzero"/></g></g></g></g></g></g><g clip-path="url(#fed403f571)"><g clip-path="url(#8ca49c7b9a)"><g clip-path="url(#832bf95fbf)"><path fill="#155dfc" d="M 305.644531 15.519531 C 296.078125 13.789062 286.695312 16.089844 279.289062 21.21875 C 271.871094 26.355469 266.421875 34.316406 264.671875 43.878906 C 262.003906 58.488281 268.777344 72.628906 280.648438 80.054688 L 261.585938 184.550781 C 259.894531 193.902344 254.640625 202.039062 246.816406 207.453125 C 239.003906 212.859375 229.550781 214.90625 220.179688 213.210938 C 210.824219 211.507812 202.699219 206.273438 197.292969 198.460938 C 191.878906 190.640625 189.835938 181.183594 191.535156 171.828125 L 200.582031 173.472656 L 175.402344 115.207031 L 165.9375 167.1875 C 159.816406 200.667969 182.023438 232.753906 215.511719 238.816406 C 232.257812 241.863281 248.664062 237.820312 261.625 228.847656 C 274.609375 219.859375 284.160156 205.941406 287.207031 189.195312 L 306.257812 84.707031 C 310.992188 83.746094 315.449219 81.835938 319.367188 79.125 C 326.789062 73.988281 332.234375 66.027344 333.984375 56.46875 C 337.460938 37.34375 324.769531 19 305.644531 15.519531 Z M 316.664062 53.304688 C 315.820312 57.945312 313.214844 61.964844 309.34375 64.644531 C 307.339844 66.03125 305.132812 66.976562 302.78125 67.445312 L 295.902344 68.835938 L 289.972656 65.117188 C 287.011719 63.28125 284.695312 60.621094 283.257812 57.410156 C 281.777344 54.160156 281.347656 50.585938 281.988281 47.058594 C 282.835938 42.417969 285.429688 38.386719 289.3125 35.699219 C 293.183594 33.023438 297.867188 32.011719 302.507812 32.855469 C 307.121094 33.683594 311.152344 36.28125 313.820312 40.140625 C 316.492188 44 317.503906 48.683594 316.664062 53.304688 Z M 316.664062 53.304688 " fill-opacity="1" fill-rule="nonzero"/></g></g></g></g></g></svg>